<?xml version="1.0" encoding="UTF-8" standalone="no"?>
<!DOCTYPE svg PUBLIC "-//W3C//DTD SVG 1.1//EN" "http://www.w3.org/Graphics/SVG/1.1/DTD/svg11.dtd">
<svg version="1.1" xmlns="http://www.w3.org/2000/svg" xmlns:xlink="http://www.w3.org/1999/xlink" preserveAspectRatio="xMidYMid meet" viewBox="0 0 800 640" width="800" height="640"><defs><path d="M197.22 381.1L196.76 321.23L196.27 261.36L231.94 291.48L267.63 321.6L232.42 351.35L197.22 381.1Z" id="bZ7GLeYfe"></path><path d="M754.45 46.5L754.45 87.08L367.8 87.08L367.8 46.5L754.45 46.5Z" id="draJhADns"></path><path d="M754.45 299.63L754.45 340.2L367.8 340.2L367.8 299.63L754.45 299.63Z" id="b1Rj5JYnce"></path><path d="M754.45 552.92L754.45 593.5L367.8 593.5L367.8 552.92L754.45 552.92Z" id="aq559DGlo"></path><path d="M207.67 320C144.86 320 105.6 320 89.89 320C65.03 320 44.88 299.85 44.88 274.98C44.88 232.16 44.88 150.23 44.88 107.79C44.88 81.87 65.89 60.86 91.81 60.86C111.57 60.86 160.96 60.86 240 60.86" id="bRh2RAAuf"></path></defs><g><g><g><use xlink:href="#bZ7GLeYfe" opacity="1" fill="#ffffff" fill-opacity="1"></use><g><use xlink:href="#bZ7GLeYfe" opacity="1" fill-opacity="0" stroke="#ffffff" stroke-width="44" stroke-opacity="1"></use></g></g><g><use xlink:href="#draJhADns" opacity="1" fill="#ffffff" fill-opacity="1"></use><g><use xlink:href="#draJhADns" opacity="1" fill-opacity="0" stroke="#ffffff" stroke-width="89" stroke-opacity="1"></use></g></g><g><use xlink:href="#b1Rj5JYnce" opacity="1" fill="#ffffff" fill-opacity="1"></use><g><use xlink:href="#b1Rj5JYnce" opacity="1" fill-opacity="0" stroke="#ffffff" stroke-width="89" stroke-opacity="1"></use></g></g><g><use xlink:href="#aq559DGlo" opacity="1" fill="#909090" fill-opacity="1"></use><g><use xlink:href="#aq559DGlo" opacity="1" fill-opacity="0" stroke="#909090" stroke-width="89" stroke-opacity="1"></use></g></g><g><g><use xlink:href="#bRh2RAAuf" opacity="1" fill-opacity="0" stroke="#ffffff" stroke-width="50" stroke-opacity="1"></use></g></g></g></g></svg>